<svg width="512" height="512" viewBox="0 0 512 512" fill="none" xmlns="http://www.w3.org/2000/svg">
<path d="M255.998 400.821C335.982 400.821 400.822 335.981 400.822 255.997C400.822 176.013 335.982 111.173 255.998 111.173C176.014 111.173 111.174 176.013 111.174 255.997C111.174 335.981 176.014 400.821 255.998 400.821Z" fill="#FFD347" fill-opacity="0.4"/>
<path d="M256.001 56.849C251.728 56.849 248.264 53.386 248.264 49.112V7.737C248.264 3.463 251.728 0 256.001 0C260.274 0 263.738 3.463 263.738 7.737V49.113C263.738 53.386 260.274 56.849 256.001 56.849Z" fill="#FFD347" fill-opacity="0.4"/>
<path d="M152.563 84.5678C149.889 84.5678 147.289 83.1808 145.856 80.6988L125.169 44.8668C123.033 41.1668 124.3 36.4348 128.001 34.2978C131.702 32.1638 136.433 33.4278 138.57 37.1298L159.257 72.9618C161.393 76.6618 160.126 81.3938 156.425 83.5308C155.206 84.2338 153.876 84.5678 152.563 84.5678Z" fill="#FFD347" fill-opacity="0.4"/>
<path d="M76.8223 160.294C75.5103 160.294 74.1793 159.96 72.9613 159.256L37.1293 138.569C33.4293 136.433 32.1613 131.701 34.2973 128C36.4333 124.299 41.1653 123.033 44.8663 125.168L80.6983 145.855C84.3983 147.991 85.6663 152.723 83.5303 156.424C82.0963 158.907 79.4963 160.294 76.8223 160.294Z" fill="#FFD347" fill-opacity="0.4"/>
<path d="M49.112 263.737H7.737C3.464 263.737 0 260.274 0 256C0 251.726 3.464 248.263 7.737 248.263H49.113C53.386 248.263 56.85 251.726 56.85 256C56.85 260.274 53.385 263.737 49.112 263.737Z" fill="#FFD347" fill-opacity="0.4"/>
<path d="M41.0045 387.869C38.3305 387.869 35.7305 386.482 34.2975 384C32.1615 380.3 33.4285 375.568 37.1295 373.431L72.9615 352.744C76.6615 350.61 81.3935 351.874 83.5305 355.576C85.6665 359.276 84.3995 364.008 80.6985 366.145L44.8665 386.832C43.6475 387.535 42.3165 387.869 41.0045 387.869Z" fill="#FFD347" fill-opacity="0.4"/>
<path d="M131.861 478.74C130.549 478.74 129.218 478.406 128 477.702C124.3 475.566 123.032 470.834 125.168 467.133L145.855 431.301C147.991 427.6 152.723 426.334 156.424 428.469C160.124 430.605 161.392 435.337 159.256 439.038L138.569 474.87C137.135 477.352 134.535 478.74 131.861 478.74Z" fill="#FFD347" fill-opacity="0.4"/>
<path d="M256.001 512C251.728 512 248.264 508.537 248.264 504.263V462.887C248.264 458.613 251.728 455.15 256.001 455.15C260.274 455.15 263.738 458.613 263.738 462.887V504.263C263.738 508.537 260.274 512 256.001 512Z" fill="#FFD347" fill-opacity="0.4"/>
<path d="M380.139 478.74C377.465 478.74 374.865 477.353 373.432 474.871L352.745 439.039C350.609 435.339 351.876 430.607 355.577 428.47C359.277 426.336 364.009 427.6 366.146 431.302L386.833 467.134C388.969 470.834 387.702 475.566 384.001 477.703C382.782 478.406 381.452 478.74 380.139 478.74Z" fill="#FFD347" fill-opacity="0.4"/>
<path d="M470.994 387.869C469.682 387.869 468.351 387.535 467.133 386.831L431.301 366.144C427.601 364.008 426.333 359.276 428.469 355.575C430.605 351.874 435.337 350.608 439.038 352.743L474.87 373.43C478.57 375.566 479.838 380.298 477.702 383.999C476.268 386.481 473.668 387.869 470.994 387.869Z" fill="#FFD347" fill-opacity="0.4"/>
<path d="M504.263 263.737H462.887C458.614 263.737 455.15 260.274 455.15 256C455.15 251.726 458.614 248.263 462.887 248.263H504.263C508.536 248.263 512 251.726 512 256C512 260.274 508.536 263.737 504.263 263.737Z" fill="#FFD347" fill-opacity="0.4"/>
<path d="M435.176 160.294C432.502 160.294 429.902 158.907 428.469 156.425C426.333 152.725 427.6 147.993 431.301 145.856L467.133 125.169C470.833 123.035 475.565 124.299 477.702 128.001C479.838 131.701 478.571 136.433 474.87 138.57L439.038 159.257C437.819 159.96 436.488 160.294 435.176 160.294Z" fill="#FFD347" fill-opacity="0.4"/>
<path d="M359.438 84.568C358.126 84.568 356.795 84.234 355.577 83.53C351.877 81.394 350.609 76.662 352.745 72.961L373.432 37.129C375.568 33.428 380.3 32.162 384.001 34.297C387.701 36.433 388.969 41.165 386.833 44.866L366.146 80.698C364.712 83.181 362.111 84.568 359.438 84.568Z" fill="#FFD347" fill-opacity="0.4"/>
<path d="M256 111.18C250.758 111.18 245.582 111.466 240.484 112.008C313.169 119.751 369.787 181.26 369.787 255.999C369.787 330.738 313.168 392.248 240.484 399.991C245.582 400.535 250.757 400.819 256 400.819C335.982 400.819 400.82 335.981 400.82 255.999C400.82 176.017 335.983 111.18 256 111.18Z" fill="#FFBE31" fill-opacity="0.4"/>
</svg>
