<svg id="Capa_1" enable-background="new 0 0 465 465" height="512" viewBox="0 0 465 465" width="512" xmlns="http://www.w3.org/2000/svg"><g><path d="m192.238 143-30.569 243.755h86.423l-10.592-243.755z" fill="#fc6"/><path d="m282.975 143h-45.475v243.755h75.831z" fill="#ffb366"/><path d="m437.5 450h-65" fill="none" stroke="#000" stroke-miterlimit="10" stroke-width="30"/><path d="m232.564 139.989c-48.13-12.986-101.675-.602-139.451 37.174-40.814 40.814-52.015 100.041-33.573 150.953l51.251-51.251 7.403-27.952 27.952-7.403 86.418-86.418z" fill="#59c36a"/><path d="m381.887 177.163c-37.743-37.743-91.226-50.136-139.323-37.207v15.263l86.29 86.29 27.952 7.403 7.404 27.952 51.251 51.251c18.441-50.911 7.24-110.138-33.574-150.952z" fill="#00a66c"/><path d="m232.951 148.097c.356-2.082 1.87-3.924 4.533-4.02.019-36.879-14.029-73.764-42.164-101.899-40.813-40.813-100.04-52.014-150.952-33.572l51.251 51.251 27.952 7.404 7.403 27.952 53.788 53.787 48.805 3.721c-.888-1.325-1.082-3.087-.616-4.624z" fill="#59c36a"/><path d="m279.679 42.179c-28.135 28.134-42.182 65.019-42.164 101.897.061-.002.119-.009.181-.009 3.317 0 4.92 2.649 4.821 5.22v.007c.038 1.159-.266 2.332-.921 3.269l50.902-5.825 51.526-51.526 7.403-27.952 27.952-7.404 51.251-51.251c-50.91-18.441-110.137-7.24-150.951 33.574z" fill="#00a66c"/><circle cx="274.5" cy="144" fill="#e37500" r="37"/><circle cx="200.5" cy="144" fill="#ff8600" r="37"/><path d="m152.5 375c-40.804 0-74.077 32.759-74.958 73.355h170.55l-10.592-73.355z" fill="#ffea80"/><path d="m312.5 375h-75v73.355h149.958c-.881-40.596-34.154-73.355-74.958-73.355z" fill="#fc6"/><path d="m27.5 435v30h210l5.064-15-5.064-15z" fill="#8298fc"/><path d="m237.5 435h200v30h-200z" fill="#706bef"/></g></svg>